<svg version="1.1" id="svg1" inkscape:version="1.3.2 (091e20ef0f, 2023-11-25)" sodipodi:docname="doots.svg" xmlns:inkscape="http://www.inkscape.org/namespaces/inkscape" xmlns:sodipodi="http://sodipodi.sourceforge.net/DTD/sodipodi-0.dtd" xmlns="http://www.w3.org/2000/svg" xmlns:svg="http://www.w3.org/2000/svg" viewBox="40.15 104.47 124.07 102.82">
  <sodipodi:namedview id="namedview1" pagecolor="#ffffff" bordercolor="#000000" borderopacity="0.25" inkscape:showpageshadow="2" inkscape:pageopacity="0.0" inkscape:pagecheckerboard="0" inkscape:deskcolor="#d1d1d1" inkscape:document-units="mm" inkscape:zoom="0.52203984" inkscape:cx="397.47924" inkscape:cy="561.25984" inkscape:window-width="1440" inkscape:window-height="831" inkscape:window-x="0" inkscape:window-y="0" inkscape:window-maximized="1" inkscape:current-layer="layer1"/>
  <defs id="defs1">
    <inkscape:perspective sodipodi:type="inkscape:persp3d" inkscape:vp_x="-13.034773 : 118.04391 : 1" inkscape:vp_y="0 : 1243.7315 : 0" inkscape:vp_z="232.63254 : 147.78455 : 1" inkscape:persp3d-origin="116.33323 : 75.68776 : 1" id="perspective28"/>
  </defs>
  <g inkscape:label="Layer 1" inkscape:groupmode="layer" id="layer1" transform="matrix(1.1620827,0,0,1,-5.3643906,0)">
    <path style="fill:#0891b2;fill-opacity:1;stroke-width:0.65844" d="m 593.39463,559.13517 c -7.72837,-0.31795 -15.89693,3.73675 -18.22927,11.52656 -2.21837,8.52944 0.87153,18.45449 8.5705,23.24835 11.96364,8.13187 25.62472,14.63102 36.69596,23.53433 0.25286,-17.05285 0.10644,-34.10966 0.14789,-51.16414 -8.33616,-4.66933 -17.52461,-7.66912 -27.18508,-7.1451 z" id="path136" transform="matrix(0.2276803,0,0,0.26458333,4.6161866,0)"/>
    <path style="fill:#077691;fill-opacity:1;stroke-width:0.65844" d="m 310.18183,559.53512 c -10.82414,-0.57352 -19.6646,7.76437 -23.15085,17.4358 -6.85461,17.53467 -5.98203,36.86416 -4.72225,55.29868 1.68535,13.30436 5.76788,28.94198 18.99831,35.18924 10.70689,4.63969 24.6457,0.77613 30.50557,-9.5911 8.89096,-15.26779 8.87048,-33.74396 8.73666,-50.89617 -0.73378,-15.10369 -2.68634,-32.4978 -15.10886,-42.82222 -4.29202,-3.41761 -9.83824,-4.81058 -15.25858,-4.61423 z" id="path138" transform="matrix(0.2276803,0,0,0.26458333,4.6161866,0)"/>
    <path style="fill:#077691;fill-opacity:1;stroke-width:0.65844" d="m 192.71973,559.09402 c -10.95244,-0.31506 -18.75324,9.31408 -21.71582,18.9372 -6.53583,20.47585 -6.52229,42.69135 -2.76119,63.7065 2.04761,11.01905 7.2451,24.05648 19.26994,27.05858 10.86892,2.52874 24.04652,-2.02759 28.46152,-12.93172 7.78047,-16.63437 5.58042,-35.52538 5.66033,-53.3251 -0.75511,-12.39588 -2.37139,-25.83848 -10.19425,-35.95699 -4.57035,-5.41402 -11.85198,-7.506 -18.72053,-7.48847 z" id="path139" transform="matrix(0.2276803,0,0,0.26458333,4.6161866,0)"/>
    <path style="fill:#077691;fill-opacity:1;stroke-width:0.65844" d="m 221.84413,493.93675 c -23.63773,15.16785 -46.67174,31.27429 -70.07371,46.8084 0.0328,13.88168 0.065,27.76336 0.0965,41.64504 3.71324,-15.5825 10.76374,-32.87572 26.41219,-39.75331 14.01814,-6.16886 31.57988,-0.24588 39.44854,12.79971 1.25793,1.5778 2.63598,4.75411 4.2207,5.32796 0.55246,-22.2624 0.62901,-44.58139 -0.0669,-66.83295 z" id="path140" transform="matrix(0.2276803,0,0,0.26458333,4.6161866,0)"/>
    <path style="fill:#077691;fill-opacity:1;stroke-width:0.65844" d="m 368.23258,396.14426 c -4.15611,2.4951 -8.28464,5.70651 -12.33161,8.00545 -0.4755,1.065 -2.09151,0.85621 -2.56046,2.05634 -3.60975,1.23626 -6.41452,4.67556 -9.87638,6.49838 -8.42587,6.00248 -17.4917,11.33233 -25.76682,17.39836 -0.87408,0.61482 -1.97627,0.78149 -2.57975,1.78242 -1.48281,0.0512 -1.67869,1.72214 -3.29734,1.70397 -10.97517,8.38019 -23.0588,15.46907 -34.27618,23.45049 -0.64275,0.80241 -2.04029,0.59842 -2.42285,1.77985 -1.67911,0.0218 -1.75762,1.8537 -3.49925,2.03062 -10.69961,7.61466 -21.7389,14.74524 -32.60822,22.11561 -0.11169,67.70958 -0.22272,135.41916 -0.33307,203.12874 -4.7484,0 -9.4968,0 -14.2452,0 -0.75474,-6.37316 -1.37524,-12.76602 -2.3817,-19.10633 -4.82603,9.8307 -13.29329,18.10904 -23.79515,21.41087 -8.13503,-0.23173 -17.02451,1.39 -24.10018,-3.73315 -12.00904,-6.66844 -17.93664,-19.89524 -21.70255,-32.48105 -0.008,25.12189 -0.0173,50.24378 -0.027,75.36567 72.03705,18.35633 144.17676,37.023 216.1458,55.20222 0.74708,-104.66757 0.42983,-209.34331 0.40676,-314.01413 -0.24497,-24.18068 0.32873,-48.4888 -0.74884,-72.59433 z m -55.76293,143.58751 c 17.03399,-0.25228 30.55301,13.46456 37.11699,28.07243 9.44137,21.7548 9.37523,46.34198 6.53909,69.49409 -2.64265,18.19229 -10.00412,38.01254 -27.12949,47.18225 -9.87817,5.54946 -22.34846,5.33912 -32.80497,1.62939 -16.92062,-7.41659 -24.97087,-25.91595 -29.13855,-42.7986 -3.43355,-15.20453 -2.41181,-30.99726 -1.92259,-46.45861 1.62049,-18.46609 7.6959,-38.41287 23.09555,-50.03115 6.9301,-5.20024 15.66399,-7.37564 24.24397,-7.0898 z" id="path141" transform="matrix(0.2276803,0,0,0.26458333,4.6161866,0)"/>
    <path style="display:inline;fill:#0891b2;fill-opacity:1;stroke-width:0.65844" d="m 421.76041,560.02123 c -11.49733,-0.51099 -19.12881,10.77661 -22.20306,20.58397 -5.778,17.99941 -4.36199,37.28266 -2.82152,55.82723 2.12524,12.71214 7.51657,27.80871 21.10866,31.98706 12.07162,3.84425 25.74275,-3.87012 29.98217,-15.57364 6.10125,-14.25412 6.50536,-30.13513 6.31737,-45.39616 -0.67943,-15.94841 -3.19431,-34.36936 -16.94629,-44.57093 -4.49376,-3.11126 -10.23052,-2.83227 -15.43733,-2.85753 z" id="path142" transform="matrix(0.2276803,0,0,0.26458333,4.6161866,0)"/>
    <path style="display:inline;fill:#0891b2;fill-opacity:1;stroke-width:0.65844" d="m 368.61452,394.88654 c -0.55109,5.93563 0.28914,12.2244 0.032,18.2909 0.40177,117.60387 0.57474,235.2108 0.0964,352.81448 -0.20317,5.71334 0.18244,11.98628 -0.608,17.37937 10.54603,-3.39999 20.65741,-8.54117 31.01241,-12.65849 64.00002,-27.25628 127.85051,-54.86176 191.76665,-82.31377 -10.049,-0.13528 -20.1253,-2.07575 -28.81553,-7.34125 -4.59354,-1.13221 -1.65092,-7.00226 -2.58478,-10.43523 0.31604,-3.43539 -0.91992,-9.50429 0.36815,-11.29031 8.92338,5.55304 18.7911,10.66519 29.63681,9.96146 7.28507,0.44273 15.61609,0.0385 20.56891,-6.15349 8.38611,-9.42486 6.2158,-25.69853 -4.30979,-32.69547 -13.44662,-10.98983 -31.98285,-16.16678 -41.62832,-31.43022 -5.63228,-10.0807 -5.67641,-22.46334 -3.39028,-33.51366 2.77218,-12.64114 13.89175,-22.13948 26.46526,-24.27089 10.93379,-2.60783 22.38802,0.13011 32.65065,3.58541 1.32288,-11.39229 0.278,-23.06807 0.53988,-34.56679 -0.0548,-10.81668 -0.10958,-21.63337 -0.16437,-32.45005 -83.24006,-27.5367 -166.3152,-55.58386 -249.76353,-82.48376 -0.5962,-0.0441 -1.28315,-0.58506 -1.87244,-0.42824 z m 146.61479,131.17874 c 0,5.49643 0,10.99286 0,16.48929 9.65712,0 19.31424,0 28.97136,0 0,5.92596 0,11.85192 0,17.77788 -9.67084,0 -19.34167,0 -29.01251,0 0.36569,30.86471 -0.26558,61.75516 0.85916,92.60278 -0.59759,9.70234 8.86091,18.54853 18.54938,16.4835 3.33075,-0.1129 6.79402,-1.64648 9.84831,-1.98947 0.87474,5.46175 0.18934,11.12182 0.4141,16.65648 -11.24665,5.8008 -27.40338,6.09057 -36.22578,-4.16155 -9.9699,-11.8641 -9.40636,-28.19694 -9.4753,-42.77915 -0.2287,-25.60373 -0.33261,-51.20841 -0.50032,-76.81259 -4.57221,0 -9.14443,0 -13.71664,0 0.4255,-3.61437 -0.75318,-8.11285 0.59751,-11.21843 4.47382,-3.22782 10.06667,-5.67952 13.84444,-9.39087 2.11992,-9.92042 4.2397,-19.84088 6.35935,-29.76136 2.80806,0.89965 9.83273,-2.59531 9.48694,1.58823 0,4.83842 0,9.67684 0,14.51526 z m -89.86292,14.29921 c 17.39543,-0.34466 31.47218,13.53726 37.63011,28.79775 9.44699,23.18762 9.74896,49.30814 5.12383,73.64133 -3.07029,16.56391 -11.39118,33.40845 -26.73532,41.68726 -9.4857,4.42491 -21.01584,4.75295 -30.81423,1.16513 -17.53444,-7.90606 -26.31789,-27.24955 -29.78026,-45.16744 -3.73359,-23.35633 -3.5167,-48.10256 4.8895,-70.46545 5.7464,-15.01415 18.91919,-28.90147 35.82961,-29.58657 1.28444,-0.0691 2.57066,-0.0893 3.85676,-0.072 z" id="path143" transform="matrix(0.2276803,0,0,0.26458333,4.6161866,0)"/>
  </g>
</svg>